<svg width="19.536" height="27.94" viewBox="0 0 19.536 27.94" xmlns="http://www.w3.org/2000/svg"><g id="svgGroup" stroke-linecap="round" fill-rule="evenodd" font-size="9pt" stroke="#1c1bd6" stroke-width="0.25mm" fill="#1c1bd6" style="stroke:#1c1bd6;stroke-width:0.25mm;fill:#1c1bd6"><path d="M 10.368 18.676 L 10.416 18.052 A 1.562 1.562 0 0 1 9.282 16.975 Q 9.171 16.652 9.136 16.238 A 4.716 4.716 0 0 1 9.12 15.844 A 4.505 4.505 0 0 1 9.22 14.872 A 3.459 3.459 0 0 1 9.576 13.924 Q 10.011 13.145 10.555 13.109 A 0.803 0.803 0 0 1 10.608 13.108 A 1.063 1.063 0 0 1 11.076 13.207 Q 11.321 13.325 11.484 13.584 A 1.559 1.559 0 0 1 11.616 13.852 Q 11.904 14.596 11.904 15.7 Q 11.904 16.276 11.832 16.9 Q 11.76 17.524 11.664 18.148 Q 11.879 18.277 12.537 18.386 A 10.826 10.826 0 0 0 12.696 18.412 Q 13.349 18.51 13.757 18.528 A 3.844 3.844 0 0 0 13.92 18.532 A 4.448 4.448 0 0 0 15.614 18.216 A 4.168 4.168 0 0 0 16.8 17.476 A 16.159 16.159 0 0 0 18.587 15.62 A 18.58 18.58 0 0 0 19.056 15.028 A 1.16 1.16 0 0 1 19.116 14.953 Q 19.214 14.843 19.287 14.836 A 0.1 0.1 0 0 1 19.296 14.836 Q 19.424 14.836 19.476 14.987 A 0.489 0.489 0 0 1 19.488 15.028 A 1.558 1.558 0 0 1 19.525 15.245 A 2.086 2.086 0 0 1 19.536 15.46 A 3.681 3.681 0 0 1 19.534 15.595 Q 19.527 15.782 19.499 15.865 A 0.211 0.211 0 0 1 19.488 15.892 Q 18.384 17.524 17.04 18.484 A 5.168 5.168 0 0 1 14.197 19.438 A 6.39 6.39 0 0 1 13.92 19.444 A 6.454 6.454 0 0 1 13.119 19.392 A 7.528 7.528 0 0 1 12.816 19.348 Q 12.24 19.252 11.616 19.06 Q 11.472 19.588 11.304 20.092 Q 11.175 20.477 11.089 20.793 A 8.64 8.64 0 0 0 11.04 20.98 A 10.798 10.798 0 0 1 10.508 22.119 Q 10.218 22.661 9.842 23.243 A 20.995 20.995 0 0 1 9.36 23.956 Q 8.208 25.588 6.648 26.764 Q 5.088 27.94 3.312 27.94 A 5.571 5.571 0 0 1 2.403 27.871 Q 1.929 27.792 1.561 27.623 A 2.046 2.046 0 0 1 0.696 26.908 A 4.042 4.042 0 0 1 0.056 25.218 A 5.316 5.316 0 0 1 0 24.436 A 10.433 10.433 0 0 1 0.348 21.801 A 11.879 11.879 0 0 1 0.456 21.412 Q 0.912 19.876 1.248 18.916 A 42.145 42.145 0 0 1 2.686 15.592 A 47.648 47.648 0 0 1 3.072 14.812 Q 4.128 12.724 5.232 10.78 A 336.251 336.251 0 0 0 6.143 9.166 Q 6.555 8.43 6.917 7.775 A 185.025 185.025 0 0 0 7.152 7.348 Q 8.366 5.257 9.521 3.841 A 14.365 14.365 0 0 1 10.488 2.764 Q 11.526 1.726 12.434 1.108 A 6.777 6.777 0 0 1 13.392 0.556 A 9.012 9.012 0 0 1 14.031 0.287 Q 14.802 0 15.339 0 A 1.871 1.871 0 0 1 15.456 0.004 Q 14.265 1.286 12.702 3.618 A 58.811 58.811 0 0 0 12.552 3.844 Q 10.896 6.34 9.072 9.532 A 150.185 150.185 0 0 0 5.917 15.356 A 165.811 165.811 0 0 0 5.472 16.228 Q 4.848 17.428 4.272 18.628 Q 3.696 19.828 3.168 21.028 A 13.276 13.276 0 0 0 2.819 21.901 Q 2.627 22.432 2.448 23.044 A 9.202 9.202 0 0 0 2.218 24.015 Q 2.125 24.54 2.114 25.02 A 5.603 5.603 0 0 0 2.112 25.156 A 3.308 3.308 0 0 0 2.174 25.812 A 2.388 2.388 0 0 0 2.448 26.548 A 1.112 1.112 0 0 0 3.222 27.087 A 1.866 1.866 0 0 0 3.6 27.124 A 2.678 2.678 0 0 0 4.541 26.942 Q 4.908 26.805 5.293 26.563 A 5.982 5.982 0 0 0 5.76 26.236 A 10.609 10.609 0 0 0 7.144 24.947 A 13.251 13.251 0 0 0 7.92 24.004 Q 8.928 22.66 9.624 21.22 A 9.665 9.665 0 0 0 10.026 20.269 Q 10.201 19.78 10.287 19.337 A 4.477 4.477 0 0 0 10.368 18.676 Z"/></g></svg>