<svg width="85" height="48" viewBox="0 0 85 48" fill="none" xmlns="http://www.w3.org/2000/svg">
<g clip-path="url(#clip0_1537_50761)">
<path d="M84.7907 7.09183C84.7907 7.09183 78.0355 5.31435 75.4399 5.08447C75.4399 5.08447 65.1641 10.6142 62.2825 12.4732C59.4027 14.3285 58.8524 17.1214 58.7257 18.1622L73.3945 7.38145H84.892C85.1834 7.38145 84.7925 7.09003 84.7925 7.09003L84.7907 7.09183Z" fill="#2E261F"/>
<path d="M65.3397 0.00181006C60.3059 0.00181006 56.8342 2.04175 56.8342 2.04175H0C0 3.56221 2.30059 4.72427 4.98854 4.72427H45.2064C45.2064 4.72427 35.5913 4.72427 35.5913 14.6452V29.4932C35.5913 35.9316 38.9852 41.5519 44.5403 44.7919C50.0936 48.0283 52.8792 47.7821 56.9664 47.7821V19.4582C56.9664 16.9639 57.7176 13.6624 61.039 11.4505C64.0455 9.44673 74.4407 3.77761 74.4407 3.77761L74.457 3.7939C72.6741 1.88971 69.4359 0 65.3397 0V0.00181006ZM57.0062 10.6432V8.83674L63.4482 5.28177L66.2792 5.51165L57.0026 10.6432H57.0062ZM68.9762 5.57138C68.4078 5.57138 67.9444 5.108 67.9444 4.53964C67.9444 3.97128 68.4078 3.51153 68.9762 3.51153C69.5445 3.51153 70.0115 3.9749 70.0115 4.53964C70.0115 5.10438 69.5463 5.57138 68.9762 5.57138Z" fill="#2E261F"/>
<path d="M73.1465 4.49079C71.2749 2.90156 68.3282 1.44807 64.8257 1.44807V0.0108814L65.3397 0.00183105C69.4287 0.00183105 72.6542 1.87706 74.4371 3.77763L73.1465 4.48536V4.48898V4.49079Z" fill="#DF1E12"/>
<path d="M73.3927 7.38326L63.1297 14.9276C63.1297 14.9276 63.0066 13.8253 64.5487 12.58C66.0945 11.3346 75.4381 5.08447 75.4381 5.08447L73.3909 7.38326H73.3927Z" fill="#DF1E12"/>
<path d="M52.6511 26.6677V21.6212C52.6511 19.4998 51.7841 18.0282 49.8039 16.6363L41.4142 10.7246C40.473 11.7491 39.9028 13.1248 39.9028 14.6525C39.9028 16.5566 40.8187 18.2454 42.2288 19.317L52.6493 26.6695L52.6529 26.6659L52.6511 26.6677Z" fill="white"/>
<path d="M52.6511 26.6677V21.6212C52.6511 19.4998 51.7841 18.0282 49.8039 16.6363L41.4142 10.7246C40.473 11.7491 39.9028 13.1248 39.9028 14.6525C39.9028 16.5566 40.8187 18.2454 42.2288 19.317L52.6493 26.6695L52.6529 26.6659L52.6511 26.6677Z" fill="white"/>
<path d="M62.2879 12.475C65.1677 10.616 75.4435 5.08629 75.4435 5.08629C75.2679 4.73875 74.8443 4.20478 74.457 3.79571L74.4407 3.77942C74.4407 3.77942 64.0491 9.44854 61.039 11.4523C57.9854 13.4886 57.1057 16.4372 56.9826 18.841L56.9663 19.46L58.7293 18.1658C58.856 17.125 59.4063 14.3321 62.2879 12.4768V12.475Z" fill="white"/>
<path d="M68.9762 3.51154C69.5464 3.51154 70.0116 3.97491 70.0116 4.53965C70.0116 5.10439 69.5464 5.57139 68.9762 5.57139C68.406 5.57139 67.9445 5.10801 67.9445 4.53965C67.9445 3.97129 68.4078 3.51154 68.9762 3.51154Z" fill="white"/>
<path d="M57.0062 8.83677L63.4482 5.2818L66.2828 5.51168L57.0062 10.6432V8.83677Z" fill="white"/>
<path d="M21.5145 4.72424H45.2065C45.2065 4.72424 35.5335 4.82199 35.5914 14.6452L21.5145 4.72424Z" fill="#FFDD00"/>
</g>
<defs>
<clipPath id="clip0_1537_50761">
<rect width="85" height="48" fill="white"/>
</clipPath>
</defs>
</svg>
