<?xml version="1.0" ?><svg height="72" viewBox="0 0 72 72" width="72" xmlns="http://www.w3.org/2000/svg"><g fill="none" fill-rule="evenodd"><path d="M36,72 L36,72 C55.882251,72 72,55.882251 72,36 L72,36 C72,16.117749 55.882251,-3.65231026e-15 36,0 L36,0 C16.117749,3.65231026e-15 -2.4348735e-15,16.117749 0,36 L0,36 C2.4348735e-15,55.882251 16.117749,72 36,72 Z" fill="#3EB449"/><path d="M35.7519919,32.9858476 C35.6741855,33.9706218 35.748508,35.3026218 35.748508,36.3257186 C35.748508,36.855267 35.8263145,37.4544928 35.5824435,37.8562993 C35.3966371,38.1628799 34.9135403,38.3928154 34.444379,38.1895896 C34.0112177,38.0002993 33.86025,37.711138 33.86025,37.0944928 L33.8614113,30.4205573 C33.8625726,29.8294606 34.0286371,29.511267 34.4699274,29.3498476 C35.0865726,29.1245573 35.4070887,29.5019767 35.6439919,29.7888154 C35.9691532,30.1848154 39.0221855,34.4572025 39.1812822,34.5547509 C39.168508,33.4341057 39.1801209,32.3088154 39.1801209,31.1893315 C39.1801209,30.663267 39.1127661,30.0222347 39.3647661,29.6842993 C39.5854113,29.3881702 40.1033467,29.1082993 40.5852822,29.4079122 C40.996379,29.663396 41.0672177,29.9990089 41.0660564,30.6133315 L41.0672177,35.6057186 C41.0672177,36.7054606 41.3366371,37.9805573 40.3414113,38.2418476 C39.808379,38.3812025 39.4588306,38.0421057 39.2590887,37.7459767 L35.7519919,32.9858476 Z M44.1934113,36.3744928 C44.8030887,36.4162993 45.5277338,36.3814606 46.1501855,36.3814606 C46.8655403,36.3814606 47.28825,36.3547509 47.6029596,36.8436541 C47.9455403,37.3766864 47.6192177,37.9561702 47.2510887,38.1454606 C46.7981855,38.3800412 44.2398629,38.2732025 43.5581855,38.2755251 C42.9241209,38.2778476 42.4909596,38.1257186 42.3469596,37.5880412 C42.2621855,37.2744928 42.2830887,30.1604283 42.35625,29.9374606 C42.53625,29.3939767 42.9032177,29.2882993 43.6057984,29.2894606 C44.2456693,29.2906218 44.8867016,29.2894606 45.5265726,29.2894606 C46.0596048,29.2894606 46.8620564,29.1861057 47.2928951,29.4218476 C47.6947016,29.6424928 47.8793467,30.2115251 47.5820564,30.7492025 C47.3254113,31.2125573 46.7703145,31.1730735 46.1025726,31.1730735 C45.4673467,31.1730735 44.8170242,31.159138 44.1887661,31.1765573 L44.1934113,32.8255896 C45.2408951,32.8975896 46.9259274,32.6618476 47.3695403,33.0415896 C47.9838629,33.5688154 47.7156048,34.3190089 47.3486371,34.5466218 C46.8701855,34.8439122 45.0179274,34.703396 44.1899274,34.7254606 L44.1934113,36.3744928 Z M26.2503145,36.3895896 C26.8599919,36.3698476 27.4894113,36.3837831 28.10025,36.3837831 C28.7180564,36.3837831 29.2348306,36.3117831 29.5530242,36.6973315 C29.8619274,37.0689444 29.8410242,37.7053315 29.50425,38.0177186 C29.1512177,38.3452025 28.5833467,38.2743638 28.0038629,38.2743638 L26.1794758,38.2743638 C25.5651532,38.2743638 25.0611532,38.3452025 24.6767661,38.0212025 C24.2714758,37.6797831 24.3655403,37.1479122 24.3667016,36.5184928 L24.3667016,34.7417186 C24.3667016,33.5421057 24.3678629,32.3413315 24.3678629,31.1417186 C24.3678629,30.5482993 24.2726371,29.943267 24.6152177,29.5774606 C24.9194758,29.2534606 25.5372822,29.179138 25.9216693,29.5263638 C26.3339274,29.8956541 26.2491532,30.3322993 26.2491532,30.9977186 L26.2503145,36.3895896 Z M31.2775403,29.3521702 C31.73625,29.1849444 32.0788306,29.3800412 32.2994758,29.6308799 C32.5665726,29.9339767 32.5294113,30.3079122 32.5294113,30.7573315 L32.5317338,36.1817186 C32.5317338,37.1769444 32.6966371,37.9155251 31.8686371,38.2186218 C31.4900564,38.3568154 31.0696693,38.1686864 30.8838629,37.9596541 C30.6353467,37.6797831 30.6411532,37.3174606 30.6423145,36.8541057 L30.6434758,31.4285573 C30.6446371,30.439138 30.4599919,29.6506218 31.2775403,29.3521702 Z M34.3839919,19.0608154 C30.8223145,19.3464928 27.3024435,20.3800412 24.4956048,22.3008154 C23.6919919,22.8501057 22.7432177,23.5910089 22.068508,24.2459767 C21.7177984,24.587396 21.3461855,24.9799122 21.0454113,25.3840412 L20.5646371,26.0076541 C20.4798629,26.1237831 20.3939274,26.2004283 20.3254113,26.2968154 C18.0376693,29.4706218 17.4175403,33.3040412 18.5556048,37.1757831 C18.9852822,38.6320412 20.03625,40.5202993 21.1046371,41.6897186 C21.2149596,41.8116541 21.2474758,41.8941057 21.3450242,42.0264928 L22.7037338,43.3538476 C23.2623145,43.7928154 23.0439919,43.6975896 23.6408951,44.0970735 C23.9265726,44.2886864 24.0357338,44.4384928 24.2737984,44.5685573 L25.2504435,45.1747509 C25.6777984,45.4627509 25.7974113,45.5475251 26.3176693,45.7902347 C27.7030887,46.4359122 28.5473467,46.8772025 30.2950887,47.2859767 C31.1196048,47.4787509 33.3690242,47.879396 33.8474758,48.1023638 C34.0692822,48.2045573 34.3328951,48.4101057 34.4350887,48.5715251 C34.840379,49.2079122 34.4559919,50.8290735 34.3421855,51.5037831 C34.2376693,52.1250735 34.012379,52.9948799 34.8206371,53.0285573 C35.3629596,53.0506218 36.0841209,52.7022347 36.4836048,52.4862347 L42.1774113,48.915267 C42.5292822,48.691138 42.6907016,48.5076541 42.7789596,48.4612025 C43.1459274,48.2661057 44.5278629,47.2801702 44.8530242,46.9805573 C45.4208951,46.4544928 45.3407661,46.5787509 45.9272177,46.1339767 C46.1072177,45.9981057 46.0456693,45.9539767 46.2070887,45.8413315 C46.5798629,45.5835251 47.3881209,44.9529444 47.6854113,44.6324283 C47.808508,44.5012025 47.8851532,44.4721702 47.9827016,44.3502347 C48.2927661,43.9670089 48.7340564,43.695267 49.3437338,42.9764283 C49.464508,42.8347509 49.5097984,42.8428799 49.6212822,42.7267509 L50.1334113,42.1333315 C50.4144435,41.7048154 50.3157338,41.8790089 50.6339274,41.5306218 C51.0624435,41.0649444 51.3492822,40.5202993 51.5397338,40.2741057 C51.940379,39.7515251 52.4687661,38.7516541 52.7207661,38.1454606 C53.1701855,37.0677831 53.5452822,35.8542347 53.6370242,34.6430089 C53.8297984,32.1079122 53.2630887,29.4648154 52.1052822,27.5405573 L51.5118629,26.5476541 C50.9881209,25.8137186 50.3912177,25.091396 49.7664435,24.4515251 C45.9214113,20.5170735 39.7886371,18.6276541 34.3839919,19.0608154 Z" fill="#FFF"/></g></svg>