<svg width="32" height="32" viewBox="0 0 32 32" fill="none" xmlns="http://www.w3.org/2000/svg">
	<path id="efav" d="M9.42165 18.249C9.63452 20.1771 10.3855 21.6764 11.6686 22.744C12.9518 23.8145 14.504 24.3498 16.3223 24.3498C17.9277 24.3498 19.2729 24.0215 20.3609 23.3591C21.4489 22.6997 22.4039 21.8716 23.2229 20.8721L27.8233 24.3498C26.3243 26.204 24.6479 27.5259 22.7942 28.3096C20.9404 29.0962 18.995 29.4865 16.9609 29.4865C15.0362 29.4865 13.2149 29.1672 11.506 28.5225C9.79418 27.8808 8.31294 26.9699 7.06527 25.7929C5.8176 24.616 4.82715 23.1965 4.09688 21.5375C3.36661 19.8784 3 18.0331 3 15.9985C3 13.9639 3.36366 12.1186 4.09688 10.4596C4.82715 8.80057 5.8176 7.38404 7.06527 6.20706C8.31294 5.03007 9.79418 4.11924 11.506 3.47752C13.2179 2.83283 15.0362 2.51345 16.9609 2.51345C18.7437 2.51345 20.3757 2.82692 21.8569 3.4509C23.3382 4.07784 24.6036 4.97684 25.6561 6.15383C26.7087 7.33082 27.5276 8.78578 28.116 10.5158C28.7043 12.2487 29 14.233 29 16.4835V18.249H9.42165ZM22.5813 13.4346C22.5458 11.5449 21.9575 10.0544 20.8162 8.96617C19.675 7.87791 18.0873 7.33377 16.0532 7.33377C14.1255 7.33377 12.6029 7.88678 11.4794 8.99279C10.3559 10.0988 9.67 11.5804 9.41869 13.4346H22.5783H22.5813Z" fill="#36824B"/>
</svg>
