<svg width="139" height="48" viewBox="0 0 139 48" fill="none" xmlns="http://www.w3.org/2000/svg">
<path d="M7.49767 34.8739C7.74809 37.1247 8.62158 38.8746 10.1211 40.1237C11.6206 41.3728 13.4332 41.9989 15.5588 41.9989C17.4339 41.9989 19.005 41.6143 20.275 40.8422C21.545 40.073 22.66 39.1042 23.6199 37.9355L28.995 41.9989C27.245 44.1662 25.2864 45.7075 23.1191 46.6227C20.9517 47.5409 18.6801 47.997 16.3071 47.997C14.0593 47.997 11.9337 47.6214 9.9333 46.8731C7.93292 46.1219 6.20384 45.0606 4.74604 43.6862C3.28824 42.3119 2.13154 40.6544 1.27893 38.7166C0.426309 36.7788 0 34.6234 0 32.2474C0 29.8714 0.426309 27.716 1.27893 25.7783C2.13154 23.8405 3.28824 22.186 4.74604 20.8116C6.20384 19.4373 7.93292 18.373 9.9333 17.6247C11.9337 16.8735 14.0593 16.4979 16.3071 16.4979C18.3909 16.4979 20.2959 16.8645 22.025 17.592C23.7541 18.3223 25.2327 19.3747 26.4639 20.749C27.6922 22.1234 28.6521 23.8226 29.3378 25.8409C30.0265 27.8651 30.3693 30.1845 30.3693 32.8109V34.8739H7.49767ZM22.8716 29.2514C22.8299 27.0423 22.1412 25.3043 20.8086 24.0313C19.4761 22.7613 17.6218 22.1263 15.2458 22.1263C12.995 22.1263 11.2152 22.7732 9.90348 24.0641C8.59176 25.355 7.78983 27.087 7.49767 29.2514H22.8716Z" fill="#36824B"/>
<path d="M35.5566 3.00204H52.8057C54.4722 3.00204 56.1178 3.1988 57.7425 3.5953C59.3673 3.9918 60.8161 4.63573 62.0861 5.53307C63.3561 6.42742 64.3876 7.5871 65.1776 9.00018C65.9706 10.4162 66.3671 12.1245 66.3671 14.1248C66.3671 16.626 65.6576 18.686 64.2415 20.3108C62.8254 21.9355 60.9711 23.1042 58.6786 23.8107V23.9359C60.0529 24.1028 61.3348 24.4874 62.5214 25.0926C63.7108 25.6948 64.7185 26.4669 65.5532 27.403C66.3879 28.3421 67.0408 29.4243 67.5208 30.6525C67.9978 31.8837 68.2393 33.2044 68.2393 34.6205C68.2393 37.0382 67.7593 39.0475 66.8023 40.6514C65.8454 42.2553 64.5843 43.5491 63.0222 44.5269C61.4601 45.5047 59.6654 46.2053 57.6471 46.6197C55.6259 47.0401 53.5748 47.2458 51.491 47.2458H35.5536V3.00204H35.5566ZM43.4328 21.0024H50.6205C53.2439 21.0024 55.2145 20.4926 56.5262 19.4701C57.8379 18.4505 58.4938 17.106 58.4938 15.4395C58.4938 13.5256 57.817 12.0976 56.4636 11.1586C55.1101 10.2225 52.9309 9.75442 49.9318 9.75442H43.4328V21.0054V21.0024ZM43.4328 40.5023H50.6831C51.6818 40.5023 52.755 40.4397 53.9028 40.3145C55.0475 40.1893 56.0999 39.8971 57.0569 39.441C58.0138 38.9849 58.8068 38.3261 59.4329 37.4705C60.0589 36.6178 60.3719 35.4611 60.3719 34.0033C60.3719 31.6691 59.6087 30.0443 58.0913 29.1291C56.5679 28.2109 54.2068 27.7548 50.9961 27.7548H43.4328V40.5053V40.5023Z" fill="#2E261F"/>
<path d="M71.9299 7.06241C71.9299 5.85504 72.3771 4.80268 73.2715 3.90832C74.1658 3.01397 75.3046 2.56381 76.679 2.56381C78.0533 2.56381 79.21 2.99012 80.1461 3.84572C81.0822 4.70132 81.5532 5.77454 81.5532 7.06241C81.5532 8.35029 81.0851 9.42947 80.1461 10.2821C79.21 11.1347 78.0503 11.561 76.679 11.561C75.3076 11.561 74.1658 11.1138 73.2715 10.2195C72.3771 9.32215 71.9299 8.26979 71.9299 7.06241ZM72.9912 17.2491H80.4919V47.2487H72.9912V17.2491Z" fill="#2E261F"/>
<path d="M86.2426 17.2491H93.7433V21.9981H93.8685C94.7032 20.2482 95.8897 18.8977 97.431 17.9378C98.9723 16.9808 100.743 16.5008 102.743 16.5008C103.2 16.5008 103.65 16.5426 104.088 16.626C104.523 16.7095 104.97 16.8138 105.429 16.9391V24.1893C104.806 24.0223 104.189 23.8852 103.587 23.7809C102.982 23.6765 102.389 23.6229 101.807 23.6229C100.057 23.6229 98.6503 23.9478 97.589 24.5917C96.5247 25.2387 95.7138 25.978 95.1504 26.8097C94.5869 27.6445 94.2143 28.4792 94.0235 29.311C93.8357 30.1457 93.7433 30.7688 93.7433 31.1861V47.2487H86.2426V17.2491Z" fill="#2E261F"/>
<path d="M131.115 42.7501H130.99C129.905 44.5836 128.45 45.9162 126.617 46.7509C124.783 47.5856 122.804 48 120.681 48C118.347 48 116.275 47.5946 114.462 46.7807C112.65 45.9668 111.097 44.8549 109.806 43.4358C108.515 42.0198 107.534 40.3533 106.869 38.4364C106.202 36.5195 105.871 34.4565 105.871 32.2474C105.871 30.0384 106.225 27.9784 106.932 26.0615C107.641 24.1446 108.628 22.4781 109.901 21.062C111.171 19.646 112.704 18.531 114.495 17.7172C116.287 16.9063 118.246 16.4979 120.371 16.4979C121.787 16.4979 123.036 16.6439 124.121 16.9331C125.204 17.2253 126.164 17.6009 126.995 18.06C127.83 18.5191 128.537 19.008 129.121 19.5267C129.702 20.0484 130.182 20.5582 130.558 21.0591H130.746V0H138.246V47.2487H131.121V42.7472L131.115 42.7501ZM113.368 32.2504C113.368 33.419 113.565 34.5429 113.962 35.6251C114.358 36.7073 114.939 37.6672 115.712 38.499C116.481 39.3337 117.408 39.9985 118.493 40.4993C119.575 40.9972 120.806 41.2476 122.181 41.2476C123.555 41.2476 124.783 40.9972 125.868 40.4993C126.951 39.9985 127.878 39.3307 128.65 38.499C129.422 37.6672 130.003 36.7073 130.4 35.6251C130.796 34.54 130.993 33.4161 130.993 32.2504C130.993 31.0848 130.796 29.9609 130.4 28.8757C130.003 27.7936 129.422 26.8336 128.65 26.0019C127.878 25.1671 126.954 24.5023 125.868 24.0015C124.783 23.5007 123.555 23.2502 122.181 23.2502C120.806 23.2502 119.578 23.5007 118.493 24.0015C117.408 24.5023 116.481 25.1701 115.712 26.0019C114.939 26.8366 114.358 27.7936 113.962 28.8757C113.565 29.9609 113.368 31.0848 113.368 32.2504Z" fill="#2E261F"/>
</svg>
